<svg xmlns="http://www.w3.org/2000/svg" xml:space="preserve" viewBox="0 0 998.4 216.2"><path d="M989.2 163h-28.9c.6-12 5.6-19 15.6-19 9.5 0 13.4 6 13.4 15.8v3.2zm7.2-.6c0-15.2-6.7-23.9-21.2-23.9-15 0-23.4 10.9-23.4 27.7s8.9 27.7 25.1 27.7c6.7 0 11.7-.5 15-1.6l-1.7-5.4c-2.8 1.1-7.8 1.6-12.2 1.6-12.2 0-17.8-7.6-18.4-20.1h36.2c.6-2.2.6-3.8.6-6m-51.7 28.8-1.7-5.4c-1.7.5-5.6 2.2-11.7 2.2-12.2 0-18.4-7.1-18.4-21.2 0-14.7 6.1-21.2 18.4-21.2 5 0 8.9 1.1 12.2 2.2v-6c-1.1-.5-6.1-1.6-12.8-1.6-16.1 0-25.1 10.3-25.1 27.2 0 17.4 8.9 27.2 25.1 27.2 6.2-.7 10.6-1.7 14-3.4m-51.8 2.2v-53.2h-14.5v4.9c2.2 0 5 .5 7.2 1.1v47.3h7.3zm.5-70.6c0-2.7-2.2-5.4-5-5.4s-5 2.2-5 5.4c0 2.7 2.2 4.9 5 4.9s5-2.2 5-4.9m-20.6 17.4h-7.2c-4.7 15.7-10.3 31.1-16.7 46.2-6.4-15.1-12-30.5-16.7-46.2H825c5 15.8 12.8 38 20 52.7h7.8c6.7-14.7 15.6-37 20-52.7m-52.8 6.5v-6.5h-3.3c-7.8 0-13.4 4.9-16.1 10.3v-10.3h-7.2v52.7h7.2v-30.4c0-7.1 5.6-15.8 17.3-15.8zM775.4 163h-29c.6-12 5.6-19 15.6-19 9.5 0 13.4 6 13.4 15.8zm7.3-.6c0-15.2-6.7-23.9-21.2-23.9-15 0-23.4 10.9-23.4 27.7s8.9 27.7 25.1 27.7c6.7 0 11.7-.5 15-1.6l-1.7-5.4c-2.8 1.1-7.8 1.6-12.8 1.6-12.2 0-17.8-7.6-18.4-20.1h36.2c1.2-2.2 1.2-3.8 1.2-6m-51.8 16.3c0-9.8-6.7-13-17.3-16.3-8.9-2.7-12.8-4.3-12.8-9.8 0-6 5-8.1 12.8-8.1 6.1 0 10.6 1.1 14.5 2.2v-6c-3.3-1.1-7.8-1.6-15-1.6-11.7 0-18.9 5.4-18.9 14.7 0 9.8 7.2 11.9 16.1 15.2 7.2 2.2 13.9 3.8 13.9 10.3 0 5.4-3.9 9.2-13.9 9.2-7.2 0-12.2-1.6-15.6-3.3l-2.2 5.4c3.3 1.6 8.9 3.3 18.4 3.3 12.2 0 20-5.4 20-15.2m-84.1-17.9h-18.9c.6-8.2 3.9-12.5 10-12.5 5.6 0 8.9 3.8 8.9 10.9zm15 3.3c0-16.8-8.4-26.1-23.4-26.1-16.7 0-25.6 11.9-25.6 28.2 0 16.8 10 28.2 27.3 28.2 7.2 0 12.8-.5 18.9-2.2l-2.8-10.9c-3.3 1.1-8.9 1.6-13.9 1.6-8.4 0-12.8-3.8-13.9-12.5h33.4zm-64 28.8v-53.8h-21.7v9.2c2.2 0 5.6.5 6.7.5v44zm.6-70.7c0-4.3-3.9-8.1-8.9-8.1s-8.9 3.8-8.9 8.1 3.9 8.2 8.9 8.2c4.4 0 8.9-3.3 8.9-8.2m-48.5 45.7c0 8.7-4.5 13-10 13-7.2 0-10-6-10-15.2 0-10.9 5-15.8 11.1-15.8 4.5 0 6.7 1.6 8.9 3.3zm15.1 22.8v-51.6h-13.9l-.6 4.3c-2.2-2.2-6.1-5.4-14.5-5.4-12.2 0-22.3 9.8-22.3 27.7 0 19.6 9.5 26.6 22.3 26.6 6.1 0 10.6-2.2 13.9-6v5.4c0 8.7-4.5 12.5-15 12.5-6.7 0-11.1-1.1-13.4-1.6l-2.2 10.3c2.2.5 8.9 2.2 18.9 2.2 8.9 0 15.6-1.6 20.6-6.5 3.9-3.2 6.2-8.7 6.2-17.9m-78-24.5c0 10.3-3.3 16.8-10.6 16.8-7.2 0-10.6-6.5-10.6-16.8s3.3-16.8 10.6-16.8c7.3-.5 10.6 6 10.6 16.8m15.6 0c0-16.3-8.9-28.2-26.2-28.2s-26.2 11.9-26.2 28.2c0 15.8 9.5 28.2 26.2 28.2 16.8-.5 26.2-12.9 26.2-28.2m-66.8 26.7v-77.7h-21.7v9.2c1.7 0 5.6.5 6.7.5v67.4h15zm-45.1-26.7c0 10.3-3.3 16.8-10.6 16.8-7.2 0-10.6-6.5-10.6-16.8s3.3-16.8 10.6-16.8c7.3-.5 10.6 6 10.6 16.8m15.6 0c0-16.3-8.9-28.2-26.2-28.2s-26.2 11.9-26.2 28.2c0 15.8 9.5 28.2 26.2 28.2 16.7.1 26.2-12.9 26.2-28.2m-66.8 26.7V156c0-10.9-6.1-17.9-18.4-17.9-7.2 0-12.8 3.3-16.1 7.1l-.6-6h-13.9V193h15v-31c0-6 5-12 10.6-12 5 0 8.4 2.7 8.4 9.2v33.7zm-64.6 0V156c0-10.9-6.1-17.9-18.4-17.9-7.2 0-12.8 2.7-15.6 6.5v-29.3h-15V193h15v-31c0-6 5-12 10.6-12 5 0 8.4 2.7 8.4 9.2v33.7zm-59-2.2-3.3-10.9c-2.2.5-6.7 1.6-11.7 1.6-8.9 0-13.4-5.4-13.4-15.8 0-11.4 5.6-16.3 15-16.3 4.5 0 9.5 1.1 10.6 1.6v-11.4c-1.1-.5-6.7-1.6-13.9-1.6-17.3 0-27.3 10.9-27.3 27.7s9.5 27.7 26.7 27.7c7.3.6 12.8-1 17.3-2.6m-70.1-29.9h-18.9c.6-8.2 3.9-12.5 10-12.5 5.6 0 8.9 3.8 8.9 10.9zm15 3.3c0-16.8-8.4-26.1-23.4-26.1-16.7 0-25.6 11.9-25.6 28.2 0 16.8 10 28.2 27.3 28.2 7.2 0 12.8-.5 18.9-2.2l-2.8-10.9c-3.3 1.1-8.9 1.6-13.9 1.6-8.4 0-12.8-3.8-13.9-12.5h33.4zm-52.9 27.7-2.8-10.3c-1.7.5-5 1.1-7.8 1.1-3.9 0-5.6-1.6-5.6-7.1v-25h13.9v-11.4H91.2v-17.9c-5 2.7-10.6 4.9-15 6.5v11.4h-8.4v11.4h8.4v26.6c0 9.8 4.5 16.3 16.7 16.3 5.5.6 10 0 15-1.6" style="fill:#666"/><path d="M.4 2.2h15v190.7H.4zm891.9 77.7c-8.4-13-16.7-23.9-22.8-30.4l21.2-23.4h-17.8l-17.3 20.1v-44h-15v77.7h15V54.3c6.7 8.7 13.9 17.9 18.4 25.5h18.3zm-67.3 0V26.1h-21.7v9.2c2.2 0 5.6.5 6.7.5v44zm0-70.7c0-4.3-3.9-8.1-8.9-8.1s-8.9 3.8-8.9 8.1 3.9 8.2 8.9 8.2 8.9-3.3 8.9-8.2m-26.2 69.6L796 68.5c-1.7.5-5 1.1-7.8 1.1-3.9 0-5.6-1.6-5.6-7.1v-25h13.9V26.1h-13.9V8.2c-5 2.7-10.6 4.9-15 6.5v11.4h-8.4v11.4h8.4v26.6c0 9.8 4.4 16.3 16.1 16.3 5.6.5 10.1 0 15.1-1.6m-64-12c-1.7 1.6-5.6 3.3-10 3.3-5 0-6.7-3.3-6.7-6.5 0-5.4 3.3-8.7 14.5-8.7h2.2zm15 13.1V43.5c0-13-7.2-18.5-22.3-18.5-7.2 0-12.8.5-18.9 2.2V38c6.1-2.2 11.1-3.3 16.1-3.3 8.4 0 11.1 2.2 11.1 7.6v2.2h-6.1c-4.5 0-8.9.5-12.2 1.6-8.4 2.7-12.8 8.1-12.8 17.4 0 11.9 7.8 16.3 16.7 16.3 7.2 0 12.8-3.3 14.5-4.9l.6 3.8h13.4v1.2zm-57.9 0v-37c0-10.9-5.6-17.9-17.3-17.9-7.8 0-12.8 3.3-16.1 8.1q-3.3-8.1-15-8.1c-6.7 0-12.2 3.3-15 7.1l-.6-6H614v53.8h15v-31c0-6 3.9-12 9.5-12 5 0 7.2 2.7 7.2 8.7v33.7h15V48.9c0-6 3.9-12 9.5-12 5 0 7.2 2.7 7.2 8.7v33.7h14.5zm-87.4-40.2v-13c-.6 0-2.8-.5-5-.5-6.1 0-11.1 3.3-14.5 10.3l-.6-9.8h-13.9v53.8h15V53.8c0-6.5 4.5-14.1 13.4-14.1 2.3-.6 4.5-.6 5.6 0m-62.4 13.5c0 10.3-3.3 16.8-10.6 16.8-7.2 0-10.6-6.5-10.6-16.8s3.3-16.8 10.6-16.8c7.3-.5 10.6 6 10.6 16.8m15.6 0c0-16.3-8.9-28.2-26.2-28.2s-26.2 11.9-26.2 28.2c0 15.8 9.5 28.2 26.2 28.2 16.8-.5 26.2-12.9 26.2-28.2m-53.4-39.6V2.7c-2.8-.5-7.2-1.1-12.8-1.1-11.1 0-18.4 5.4-18.4 17.4v7.1H467v11.4h6.7v42.4h15V37.5h11.7V26.1h-12.2v-5.4c0-6 2.8-8.2 7.8-8.2 2.7 0 6.1.5 8.3 1.1M457 79.9v-37C457 32 450.9 25 438.6 25c-7.2 0-12.8 3.3-16.1 7.1l-.6-6H408v53.8h15v-31c0-6 5-12 10.6-12 5 0 8.4 2.7 8.4 9.2v33.7h15zm-66.3 0V26.1H369v9.2c1.7 0 5.6.5 6.7.5v44zm.6-70.7c0-4.3-3.9-8.1-8.9-8.1s-8.9 3.8-8.9 8.1 3.9 8.2 8.9 8.2c4.4 0 8.9-3.3 8.9-8.2m-52.9 70.7v-5.4h-32.8c2.8-4.9 8.9-13 15-21.2 5.6-7 11.2-14.1 16.7-21.2v-5.4h-38.4v5.4h30.6c-5 5.8-9.8 11.8-14.5 17.9-8.9 11.4-15.6 21.2-17.3 24.4v5.4h40.7zm-53.5.5V42.9c0-10.9-6.1-16.8-17.3-16.8-8.9 0-14.5 3.8-18.4 9.2v-8.1H242v52.7h7.2v-31c0-9.2 7.2-16.8 16.1-16.8 8.4 0 12.2 4.3 12.2 13.6v34.8h7.4zM219.8 69c-3.3 3.3-8.4 6.5-15 6.5-8.4 0-11.1-4.9-11.1-10.3 0-10.3 7.8-12.5 21.2-12.5h5V69zm6.7 10.9v-37c0-11.9-6.1-17.4-20-17.4-6.7 0-11.7 1.1-16.1 2.2v6c3.3-1.1 8.4-2.7 15-2.7 10.6 0 14.5 3.8 14.5 11.9v3.3h-5c-7.8 0-13.9 1.1-18.4 2.7-6.7 2.7-10 8.1-10 15.2 0 12 7.8 15.8 16.7 15.8 7.8 0 13.9-3.3 16.7-6v4.9h6.7v1.1zm-51.8 0v-37c0-10.9-6.1-16.8-17.3-16.8-8.9 0-14.5 3.8-18.4 9.2v-8.1h-7.2v52.7h7.2v-31c0-9.2 7.2-16.8 16.1-16.8 8.4 0 12.2 4.3 12.2 13.6v34.8h7.2zm-59.6.5V27.2h-14.5v4.9c2.2 0 5 .5 7.2 1.1v47.3h7.3zm.6-70.6c0-2.7-2.2-5.4-5-5.4s-5 2.2-5 5.4c0 2.7 2.2 4.9 5 4.9 2.8.5 5-2.2 5-4.9m-15.6-2.2V2.2c-1.1 0-4.5-1.1-8.9-1.1-9.5 0-15 5.4-15 15.2v10.9h-6.7v5.4h6.7v47.8h7.2V32.6h12.8v-5.4H83.4v-8.7c0-7.6 2.2-11.4 9.5-11.4 2.2 0 5 .5 7.2.5" style="fill:#e41d0c"/></svg>