<?xml version="1.0" encoding="utf-8"?>
<!-- Generator: Adobe Illustrator 26.5.1, SVG Export Plug-In . SVG Version: 6.00 Build 0)  -->
<svg version="1.1" id="Ebene_1" xmlns="http://www.w3.org/2000/svg" xmlns:xlink="http://www.w3.org/1999/xlink" x="0px" y="0px"
	 viewBox="0 0 998.4 216.2" style="enable-background:new 0 0 998.4 216.2;" xml:space="preserve">
<style type="text/css">
	.st0{fill:none;}
	.st1{fill:#666666;}
	.st2{fill:#E41D0C;}
</style>
<path class="st0" d="M498.4,108.1"/>
<path class="st0" d="M498.4,108.1"/>
<g>
	<path class="st1" d="M989.2,163h-28.9c0.6-12,5.6-19,15.6-19c9.5,0,13.4,6,13.4,15.8V163z M996.4,162.4c0-15.2-6.7-23.9-21.2-23.9
		c-15,0-23.4,10.9-23.4,27.7s8.9,27.7,25.1,27.7c6.7,0,11.7-0.5,15-1.6l-1.7-5.4c-2.8,1.1-7.8,1.6-12.2,1.6
		c-12.2,0-17.8-7.6-18.4-20.1h36.2C996.4,166.2,996.4,164.6,996.4,162.4 M944.7,191.2l-1.7-5.4c-1.7,0.5-5.6,2.2-11.7,2.2
		c-12.2,0-18.4-7.1-18.4-21.2c0-14.7,6.1-21.2,18.4-21.2c5,0,8.9,1.1,12.2,2.2v-6c-1.1-0.5-6.1-1.6-12.8-1.6
		c-16.1,0-25.1,10.3-25.1,27.2c0,17.4,8.9,27.2,25.1,27.2C936.9,193.9,941.3,192.9,944.7,191.2 M892.9,193.4v-53.2h-14.5v4.9
		c2.2,0,5,0.5,7.2,1.1v47.3H892.9z M893.4,122.8c0-2.7-2.2-5.4-5-5.4s-5,2.2-5,5.4c0,2.7,2.2,4.9,5,4.9
		C891.2,127.7,893.4,125.5,893.4,122.8 M872.8,140.2h-7.2c-4.7,15.7-10.3,31.1-16.7,46.2c-6.4-15.1-12-30.5-16.7-46.2H825
		c5,15.8,12.8,38,20,52.7h7.8C859.5,178.2,868.4,155.9,872.8,140.2 M820,146.7v-6.5h-3.3c-7.8,0-13.4,4.9-16.1,10.3v-10.3h-7.2v52.7
		h7.2v-30.4c0-7.1,5.6-15.8,17.3-15.8H820 M775.4,163h-29c0.6-12,5.6-19,15.6-19c9.5,0,13.4,6,13.4,15.8V163z M782.7,162.4
		c0-15.2-6.7-23.9-21.2-23.9c-15,0-23.4,10.9-23.4,27.7s8.9,27.7,25.1,27.7c6.7,0,11.7-0.5,15-1.6l-1.7-5.4
		c-2.8,1.1-7.8,1.6-12.8,1.6c-12.2,0-17.8-7.6-18.4-20.1h36.2C782.7,166.2,782.7,164.6,782.7,162.4 M730.9,178.7
		c0-9.8-6.7-13-17.3-16.3c-8.9-2.7-12.8-4.3-12.8-9.8c0-6,5-8.1,12.8-8.1c6.1,0,10.6,1.1,14.5,2.2v-6c-3.3-1.1-7.8-1.6-15-1.6
		c-11.7,0-18.9,5.4-18.9,14.7c0,9.8,7.2,11.9,16.1,15.2c7.2,2.2,13.9,3.8,13.9,10.3c0,5.4-3.9,9.2-13.9,9.2
		c-7.2,0-12.2-1.6-15.6-3.3l-2.2,5.4c3.3,1.6,8.9,3.3,18.4,3.3C723.1,193.9,730.9,188.5,730.9,178.7 M646.8,160.8h-18.9
		c0.6-8.2,3.9-12.5,10-12.5c5.6,0,8.9,3.8,8.9,10.9V160.8z M661.8,164.1c0-16.8-8.4-26.1-23.4-26.1c-16.7,0-25.6,11.9-25.6,28.2
		c0,16.8,10,28.2,27.3,28.2c7.2,0,12.8-0.5,18.9-2.2l-2.8-10.9c-3.3,1.1-8.9,1.6-13.9,1.6c-8.4,0-12.8-3.8-13.9-12.5h33.4V164.1
		 M597.8,192.9v-53.8h-21.7v9.2c2.2,0,5.6,0.5,6.7,0.5v44L597.8,192.9z M598.4,122.2c0-4.3-3.9-8.1-8.9-8.1c-5,0-8.9,3.8-8.9,8.1
		c0,4.3,3.9,8.2,8.9,8.2C593.9,130.4,598.4,127.1,598.4,122.2 M549.9,167.9c0,8.7-4.5,13-10,13c-7.2,0-10-6-10-15.2
		c0-10.9,5-15.8,11.1-15.8c4.5,0,6.7,1.6,8.9,3.3V167.9z M565,190.7v-51.6h-13.9l-0.6,4.3c-2.2-2.2-6.1-5.4-14.5-5.4
		c-12.2,0-22.3,9.8-22.3,27.7c0,19.6,9.5,26.6,22.3,26.6c6.1,0,10.6-2.2,13.9-6v5.4c0,8.7-4.5,12.5-15,12.5
		c-6.7,0-11.1-1.1-13.4-1.6l-2.2,10.3c2.2,0.5,8.9,2.2,18.9,2.2c8.9,0,15.6-1.6,20.6-6.5C562.7,205.4,565,199.9,565,190.7
		 M487,166.2c0,10.3-3.3,16.8-10.6,16.8c-7.2,0-10.6-6.5-10.6-16.8s3.3-16.8,10.6-16.8C483.7,148.9,487,155.4,487,166.2
		 M502.6,166.2c0-16.3-8.9-28.2-26.2-28.2c-17.3,0-26.2,11.9-26.2,28.2c0,15.8,9.5,28.2,26.2,28.2
		C493.2,193.9,502.6,181.5,502.6,166.2 M435.8,192.9v-77.7h-21.7v9.2c1.7,0,5.6,0.5,6.7,0.5v67.4h15V192.9z M390.7,166.2
		c0,10.3-3.3,16.8-10.6,16.8c-7.2,0-10.6-6.5-10.6-16.8s3.3-16.8,10.6-16.8C387.4,148.9,390.7,155.4,390.7,166.2 M406.3,166.2
		c0-16.3-8.9-28.2-26.2-28.2c-17.3,0-26.2,11.9-26.2,28.2c0,15.8,9.5,28.2,26.2,28.2C396.8,194.5,406.3,181.5,406.3,166.2
		 M339.5,192.9v-36.9c0-10.9-6.1-17.9-18.4-17.9c-7.2,0-12.8,3.3-16.1,7.1l-0.6-6h-13.9v53.8h15v-31c0-6,5-12,10.6-12
		c5,0,8.4,2.7,8.4,9.2v33.7H339.5z M274.9,192.9v-36.9c0-10.9-6.1-17.9-18.4-17.9c-7.2,0-12.8,2.7-15.6,6.5v-29.3h-15v77.7h15v-31
		c0-6,5-12,10.6-12c5,0,8.4,2.7,8.4,9.2v33.7H274.9z M215.9,190.7l-3.3-10.9c-2.2,0.5-6.7,1.6-11.7,1.6c-8.9,0-13.4-5.4-13.4-15.8
		c0-11.4,5.6-16.3,15-16.3c4.5,0,9.5,1.1,10.6,1.6v-11.4c-1.1-0.5-6.7-1.6-13.9-1.6c-17.3,0-27.3,10.9-27.3,27.7
		c0,16.8,9.5,27.7,26.7,27.7C205.9,193.9,211.4,192.3,215.9,190.7 M145.8,160.8h-18.9c0.6-8.2,3.9-12.5,10-12.5
		c5.6,0,8.9,3.8,8.9,10.9V160.8z M160.8,164.1c0-16.8-8.4-26.1-23.4-26.1c-16.7,0-25.6,11.9-25.6,28.2c0,16.8,10,28.2,27.3,28.2
		c7.2,0,12.8-0.5,18.9-2.2l-2.8-10.9c-3.3,1.1-8.9,1.6-13.9,1.6c-8.4,0-12.8-3.8-13.9-12.5h33.4V164.1 M107.9,191.8l-2.8-10.3
		c-1.7,0.5-5,1.1-7.8,1.1c-3.9,0-5.6-1.6-5.6-7.1v-25h13.9v-11.4H91.2v-17.9c-5,2.7-10.6,4.9-15,6.5v11.4h-8.4v11.4h8.4v26.6
		c0,9.8,4.5,16.3,16.7,16.3C98.4,194,102.9,193.4,107.9,191.8"/>
	<path class="st2" d="M0.4,2.2h15v190.7h-15V2.2z M892.3,79.9c-8.4-13-16.7-23.9-22.8-30.4l21.2-23.4h-17.8l-17.3,20.1v-44h-15v77.7
		h15V54.3c6.7,8.7,13.9,17.9,18.4,25.5H892.3z M825,79.9V26.1h-21.7v9.2c2.2,0,5.6,0.5,6.7,0.5v44L825,79.9z M825,9.2
		c0-4.3-3.9-8.1-8.9-8.1c-5,0-8.9,3.8-8.9,8.1c0,4.3,3.9,8.2,8.9,8.2C821.1,17.4,825,14.1,825,9.2 M798.8,78.8L796,68.5
		c-1.7,0.5-5,1.1-7.8,1.1c-3.9,0-5.6-1.6-5.6-7.1v-25h13.9V26.1h-13.9V8.2c-5,2.7-10.6,4.9-15,6.5v11.4h-8.4v11.4h8.4v26.6
		c0,9.8,4.4,16.3,16.1,16.3C789.3,80.9,793.8,80.4,798.8,78.8 M734.8,66.8c-1.7,1.6-5.6,3.3-10,3.3c-5,0-6.7-3.3-6.7-6.5
		c0-5.4,3.3-8.7,14.5-8.7h2.2V66.8z M749.8,79.9V43.5c0-13-7.2-18.5-22.3-18.5c-7.2,0-12.8,0.5-18.9,2.2V38
		c6.1-2.2,11.1-3.3,16.1-3.3c8.4,0,11.1,2.2,11.1,7.6v2.2h-6.1c-4.5,0-8.9,0.5-12.2,1.6c-8.4,2.7-12.8,8.1-12.8,17.4
		c0,11.9,7.8,16.3,16.7,16.3c7.2,0,12.8-3.3,14.5-4.9l0.6,3.8h13.4V79.9z M691.9,79.9V42.9c0-10.9-5.6-17.9-17.3-17.9
		c-7.8,0-12.8,3.3-16.1,8.1c-2.2-5.4-7.2-8.1-15-8.1c-6.7,0-12.2,3.3-15,7.1l-0.6-6H614v53.8h15v-31c0-6,3.9-12,9.5-12
		c5,0,7.2,2.7,7.2,8.7v33.7h15V48.9c0-6,3.9-12,9.5-12c5,0,7.2,2.7,7.2,8.7v33.7h14.5V79.9z M604.5,39.7v-13c-0.6,0-2.8-0.5-5-0.5
		c-6.1,0-11.1,3.3-14.5,10.3l-0.6-9.8h-13.9v53.8h15V53.8c0-6.5,4.5-14.1,13.4-14.1C601.2,39.1,603.4,39.1,604.5,39.7 M542.1,53.2
		c0,10.3-3.3,16.8-10.6,16.8c-7.2,0-10.6-6.5-10.6-16.8c0-10.3,3.3-16.8,10.6-16.8C538.8,35.9,542.1,42.4,542.1,53.2 M557.7,53.2
		c0-16.3-8.9-28.2-26.2-28.2c-17.3,0-26.2,11.9-26.2,28.2c0,15.8,9.5,28.2,26.2,28.2C548.3,80.9,557.7,68.5,557.7,53.2 M504.3,13.6
		V2.7c-2.8-0.5-7.2-1.1-12.8-1.1c-11.1,0-18.4,5.4-18.4,17.4v7.1H467v11.4h6.7v42.4h15V37.5h11.7V26.1h-12.2v-5.4
		c0-6,2.8-8.2,7.8-8.2C498.7,12.5,502.1,13,504.3,13.6 M457,79.9V42.9c0-10.9-6.1-17.9-18.4-17.9c-7.2,0-12.8,3.3-16.1,7.1l-0.6-6
		H408v53.8h15v-31c0-6,5-12,10.6-12c5,0,8.4,2.7,8.4,9.2v33.7H457z M390.7,79.9V26.1H369v9.2c1.7,0,5.6,0.5,6.7,0.5v44L390.7,79.9z
		 M391.3,9.2c0-4.3-3.9-8.1-8.9-8.1c-5,0-8.9,3.8-8.9,8.1c0,4.3,3.9,8.2,8.9,8.2C386.8,17.4,391.3,14.1,391.3,9.2 M338.4,79.9v-5.4
		h-32.8c2.8-4.9,8.9-13,15-21.2c5.6-7,11.2-14.1,16.7-21.2v-5.4h-38.4v5.4h30.6c-5,5.8-9.8,11.8-14.5,17.9
		c-8.9,11.4-15.6,21.2-17.3,24.4v5.4H338.4z M284.9,80.4V42.9c0-10.9-6.1-16.8-17.3-16.8c-8.9,0-14.5,3.8-18.4,9.2v-8.1h-7.2v52.7
		h7.2v-31c0-9.2,7.2-16.8,16.1-16.8c8.4,0,12.2,4.3,12.2,13.6v34.8H284.9z M219.8,69c-3.3,3.3-8.4,6.5-15,6.5
		c-8.4,0-11.1-4.9-11.1-10.3c0-10.3,7.8-12.5,21.2-12.5h5V69z M226.5,79.9V42.9c0-11.9-6.1-17.4-20-17.4c-6.7,0-11.7,1.1-16.1,2.2v6
		c3.3-1.1,8.4-2.7,15-2.7c10.6,0,14.5,3.8,14.5,11.9v3.3h-5c-7.8,0-13.9,1.1-18.4,2.7c-6.7,2.7-10,8.1-10,15.2
		c0,12,7.8,15.8,16.7,15.8c7.8,0,13.9-3.3,16.7-6v4.9h6.7V79.9z M174.7,79.9V42.9c0-10.9-6.1-16.8-17.3-16.8
		c-8.9,0-14.5,3.8-18.4,9.2v-8.1h-7.2v52.7h7.2v-31c0-9.2,7.2-16.8,16.1-16.8c8.4,0,12.2,4.3,12.2,13.6v34.8h7.2L174.7,79.9z
		 M115.1,80.4V27.2h-14.5v4.9c2.2,0,5,0.5,7.2,1.1v47.3H115.1z M115.7,9.8c0-2.7-2.2-5.4-5-5.4c-2.8,0-5,2.2-5,5.4
		c0,2.7,2.2,4.9,5,4.9C113.5,15.2,115.7,12.5,115.7,9.8 M100.1,7.6V2.2c-1.1,0-4.5-1.1-8.9-1.1c-9.5,0-15,5.4-15,15.2v10.9h-6.7v5.4
		h6.7v47.8h7.2V32.6h12.8v-5.4H83.4v-8.7c0-7.6,2.2-11.4,9.5-11.4C95.1,7.1,97.9,7.6,100.1,7.6"/>
</g>
</svg>
