<svg xmlns="http://www.w3.org/2000/svg" width="96" height="96" fill="none" viewBox="0 0 96 96"><path fill="url(#a)" d="M9 17.667C9 12.9 12.9 9 17.667 9h60.666C83.1 9 87 12.9 87 17.667v60.666C87 83.1 83.1 87 78.333 87H17.667C12.9 87 9 83.1 9 78.333z"/><path fill="url(#b)" d="M56.666 56.667H39.333V39.333c0-3.466 2.383-8.666 8.667-8.666s8.666 5.2 8.666 8.666zm-13-4.334h8.667v-13C52.333 38.9 52.116 35 48 35s-4.334 3.9-4.334 4.333z"/><path fill="url(#c)" d="m48 15.5 1.083 2.383 2.817.434-1.95 1.95.433 2.6-2.383-1.3-2.383 1.3.433-2.6-1.95-1.95 2.817-.434zm-14.733 4.333 1.3 2.384 2.6.433-1.95 1.95.433 2.6-2.383-1.3-2.384 1.3.434-2.6-1.734-1.95 2.6-.433zM23.733 29.8l1.084 2.383 2.6.434-1.734 1.95.434 2.6-2.384-1.3-2.383 1.3.433-2.6-1.95-1.95 2.6-.434zm48.534 29.033 1.3 2.384 2.6.433-1.95 1.95.433 2.6-2.383-1.3-2.384 1.3.434-2.6-1.734-1.95 2.6-.433zM62.733 68.8l1.084 2.383 2.6.434-1.734 1.95.434 2.6-2.384-1.3-2.383 1.3.433-2.6-1.95-1.95 2.6-.434zm1.084-46.583 2.6.433-1.734 1.95.434 2.6-2.384-1.3-2.383 1.3.433-2.6-1.95-1.95 2.6-.433 1.3-2.384zm9.75 9.966 2.6.434-1.95 1.95.433 2.6-2.383-1.3-2.384 1.3.434-2.6-1.734-1.95 2.6-.434 1.084-2.383zm-48.75 29.034 2.6.433-1.734 1.95.434 2.6-2.384-1.3-2.383 1.3.433-2.6-1.95-1.95 2.6-.433 1.3-2.384zm9.75 9.966 2.6.434-1.95 1.95.433 2.6-2.383-1.3-2.384 1.3.434-2.6-1.734-1.95 2.6-.434 1.084-2.383zM76.6 44.317l1.3 2.383 2.6.433-1.95 1.95.433 2.6-2.383-1.3-2.383 1.3.433-2.6-1.733-1.95 2.6-.433zm-57.2 0 1.083 2.383 2.6.433-1.733 1.95.433 2.6-2.383-1.3-2.383 1.3.433-2.6-1.95-1.95 2.6-.433zM48 73.133l1.083 2.384 2.817.433-1.95 1.95.433 2.6L48 79.2l-2.383 1.3.433-2.6-1.95-1.95 2.817-.433z"/><path fill="url(#d)" d="M58.833 63.167H37.167c-1.3 0-2.167-.962-2.167-2.407V43.907c0-1.445.867-2.407 2.167-2.407h21.666c1.3 0 2.167.962 2.167 2.407V60.76c0 1.445-.867 2.407-2.167 2.407"/><path fill="url(#e)" d="M48 48c-1.3 0-2.166.867-2.166 2.167V54.5c0 1.3.866 2.167 2.166 2.167s2.167-.867 2.167-2.167v-4.333C50.167 48.867 49.3 48 48 48"/><defs><linearGradient id="a" x1="25.545" x2="72.596" y1="5.767" y2="94.258" gradientUnits="userSpaceOnUse"><stop stop-color="#0077d2"/><stop offset="1" stop-color="#0b59a2"/></linearGradient><linearGradient id="b" x1="48" x2="48" y1="31.377" y2="42.059" gradientUnits="userSpaceOnUse"><stop stop-color="#fcfcfc"/><stop offset=".658" stop-color="#f4f4f4"/><stop offset=".777" stop-color="#e8e8e8"/><stop offset=".89" stop-color="#d1d1d1"/></linearGradient><linearGradient id="c" x1="31.902" x2="82.938" y1="17.708" y2="113.691" gradientUnits="userSpaceOnUse"><stop stop-color="#ffda1c"/><stop offset="1" stop-color="#feb705"/></linearGradient><linearGradient id="d" x1="48" x2="48" y1="65.871" y2="76.128" gradientUnits="userSpaceOnUse"><stop stop-color="#fcfcfc"/><stop offset=".495" stop-color="#f4f4f4"/><stop offset=".869" stop-color="#e8e8e8"/><stop offset="1" stop-color="#e8e8e8"/></linearGradient><linearGradient id="e" x1="21.797" x2="73.212" y1="3.053" y2="99.751" gradientUnits="userSpaceOnUse"><stop stop-color="#0077d2"/><stop offset="1" stop-color="#0b59a2"/></linearGradient></defs></svg>