<svg xmlns="http://www.w3.org/2000/svg" width="96" height="96" viewBox="0 0 48 48"><linearGradient id="a" x1="46.523" x2="42.32" y1="21" y2="21" gradientUnits="userSpaceOnUse"><stop offset="0" stop-color="#ffd869"/><stop offset="1" stop-color="#fec52b"/></linearGradient><path fill="url(#a)" d="M45 29a1 1 0 0 0 1-1V14a1 1 0 0 0-1-1h-5v16z"/><linearGradient id="b" x1="46.523" x2="42.32" y1="33.5" y2="33.5" gradientUnits="userSpaceOnUse"><stop offset="0" stop-color="#ffd869"/><stop offset="1" stop-color="#fec52b"/></linearGradient><path fill="url(#b)" d="M46 33a1 1 0 0 0-1-1h-5v3h5a1 1 0 0 0 1-1z"/><path d="M39.5 29H44V13h-6v17.5a1.5 1.5 0 0 1 1.5-1.5m0 3a1.5 1.5 0 0 1-1.5-1.5V35h6v-3z" opacity=".05"/><path d="M39.5 32a1.5 1.5 0 0 1 0-3H43V13h-6v22h6v-3z" opacity=".07"/><linearGradient id="c" x1="18.791" x2="26.203" y1="12.546" y2="39.001" gradientUnits="userSpaceOnUse"><stop offset="0" stop-color="#21ad64"/><stop offset="1" stop-color="#088242"/></linearGradient><path fill="url(#c)" d="M39.5 32a1.5 1.5 0 0 1 0-3H42V13a2 2 0 0 0-2-2H4a2 2 0 0 0-2 2v8a3 3 0 1 1 0 6v8a2 2 0 0 0 2 2h36a2 2 0 0 0 2-2v-3z"/><linearGradient id="d" x1="8.304" x2="36.471" y1="22.775" y2="32.109" gradientUnits="userSpaceOnUse"><stop offset="0" stop-color="#4c4c4c"/><stop offset="1" stop-color="#343434"/></linearGradient><path fill="url(#d)" d="M17 32H7a1 1 0 0 1-1-1V17a1 1 0 0 1 1-1h10a1 1 0 0 1 1 1v14a1 1 0 0 1-1 1"/><linearGradient id="e" x1="9.59" x2="37.757" y1="18.894" y2="28.227" gradientUnits="userSpaceOnUse"><stop offset="0" stop-color="#4c4c4c"/><stop offset="1" stop-color="#343434"/></linearGradient><path fill="url(#e)" d="M30 32H20a1 1 0 0 1-1-1V17a1 1 0 0 1 1-1h10a1 1 0 0 1 1 1v14a1 1 0 0 1-1 1"/><linearGradient id="f" x1="11.873" x2="40.04" y1="12.005" y2="21.339" gradientUnits="userSpaceOnUse"><stop offset="0" stop-color="#4c4c4c"/><stop offset="1" stop-color="#343434"/></linearGradient><path fill="url(#f)" d="M39 24h-6a1 1 0 0 1-1-1v-6a1 1 0 0 1 1-1h6a1 1 0 0 1 1 1v6a1 1 0 0 1-1 1"/></svg>