<svg xmlns="http://www.w3.org/2000/svg" xml:space="preserve" viewBox="0 0 96 96"><path d="M48 6.2c-16 0-32.7 3.6-32.7 3.6-3.2.6-5.6 3.5-5.6 6.8v20.9c0 36.2 34.9 51.3 34.9 51.3 1.1.5 2.3.9 3.4.9s2.3-.3 3.4-.9c0 0 34.9-15.1 34.9-51.3V16.7c0-3.3-2.3-6.2-5.6-6.8 0-.1-16.7-3.7-32.7-3.7m0 14c5.8 0 10.4 4.7 10.4 10.4v6.9H62c1.9 0 3.5 1.5 3.5 3.5v17.4c0 1.9-1.5 3.5-3.5 3.5H34c-1.9 0-3.5-1.5-3.5-3.5V41.1c0-1.9 1.5-3.5 3.5-3.5h3.5v-6.9c.1-5.8 4.7-10.5 10.5-10.5m0 6.9c-1.9 0-3.5 1.5-3.5 3.5v6.9h6.9v-6.9c.1-1.9-1.5-3.5-3.4-3.5" style="fill:#fff"/></svg>