<svg xmlns="http://www.w3.org/2000/svg" width="96" height="96" viewBox="0 0 48 48"><linearGradient id="a" x1="11.296" x2="30.146" y1="544.529" y2="580.427" gradientTransform="translate(0 -541.78)" gradientUnits="userSpaceOnUse"><stop offset="0" stop-color="#fcfcfc"/><stop offset=".95" stop-color="#c3c9cd"/></linearGradient><path fill="url(#a)" d="M48 26c0 6.63-5.37 12-12 12H9.5C4.25 38 0 33.75 0 28.5c0-4.54 3.18-8.34 7.45-9.28C9.15 12.21 15.46 7 23 7c5.51 0 10.36 2.78 13.24 7.01C42.76 14.13 48 19.45 48 26"/><linearGradient id="b" x1="24" x2="24" y1="569.263" y2="561.045" gradientTransform="translate(0 -539.89)" gradientUnits="userSpaceOnUse"><stop offset="0" stop-color="#4b4b4b"/><stop offset="1" stop-color="#3b3b3b"/></linearGradient><path fill="url(#b)" d="M27 23a3 3 0 1 0-6 0 2.99 2.99 0 0 0 2 2.816V29a1 1 0 0 0 2 0v-3.184A2.99 2.99 0 0 0 27 23"/></svg>