<?xml version="1.0" encoding="utf-8"?>
<!-- Generator: Adobe Illustrator 27.8.0, SVG Export Plug-In . SVG Version: 6.00 Build 0)  -->
<svg version="1.1" id="Ebene_1" xmlns="http://www.w3.org/2000/svg" xmlns:xlink="http://www.w3.org/1999/xlink" x="0px" y="0px"
	 viewBox="0 0 96 96" style="enable-background:new 0 0 96 96;" xml:space="preserve">
<style type="text/css">
	.st0{fill:#FFFFFF;}
</style>
<g>
	<path class="st0" d="M48,6.2c-16,0-32.7,3.6-32.7,3.6l0,0c-3.2,0.6-5.6,3.5-5.6,6.8v20.9c0,36.2,34.9,51.3,34.9,51.3
		c1.1,0.5,2.3,0.9,3.4,0.9s2.3-0.3,3.4-0.9l0,0c0,0,34.9-15.1,34.9-51.3V16.7c0-3.3-2.3-6.2-5.6-6.8C80.7,9.8,64,6.2,48,6.2z
		 M48,20.2c5.8,0,10.4,4.7,10.4,10.4v6.9H62c1.9,0,3.5,1.5,3.5,3.5v17.4c0,1.9-1.5,3.5-3.5,3.5H34c-1.9,0-3.5-1.5-3.5-3.5V41.1
		c0-1.9,1.5-3.5,3.5-3.5h3.5v-6.9C37.6,24.9,42.2,20.2,48,20.2z M48,27.1c-1.9,0-3.5,1.5-3.5,3.5v6.9h6.9v-6.9
		C51.5,28.7,49.9,27.1,48,27.1z"/>
</g>
</svg>
