<svg xmlns="http://www.w3.org/2000/svg" width="96" height="96" viewBox="0 0 48 48"><radialGradient id="a" cx="28.686" cy="21.073" r="17.032" gradientUnits="userSpaceOnUse"><stop offset=".683" stop-color="#c24717"/><stop offset=".756" stop-color="#bb4417"/><stop offset=".862" stop-color="#a83b18"/><stop offset=".987" stop-color="#892c1a"/><stop offset="1" stop-color="#852a1a"/></radialGradient><path fill="url(#a)" d="m32.002 8.271.162-.496c.33-1.011-.184-2.12-1.18-2.493-9.254-3.467-19.864.357-24.636 9.315-3.137 5.89-3.031 12.643-.305 18.212l5.354-2.71a13.98 13.98 0 0 1 .246-12.681c3.363-6.314 10.947-9.173 18.085-7.811a1.993 1.993 0 0 0 2.274-1.336"/><radialGradient id="b" cx="-243.314" cy="-250.927" r="17.032" gradientTransform="rotate(180 -112 -112)" gradientUnits="userSpaceOnUse"><stop offset=".683" stop-color="#c24717"/><stop offset=".756" stop-color="#bb4417"/><stop offset=".862" stop-color="#a83b18"/><stop offset=".987" stop-color="#892c1a"/><stop offset="1" stop-color="#852a1a"/></radialGradient><path fill="url(#b)" d="m15.998 39.729-.162.496c-.33 1.011.184 2.12 1.18 2.493 9.253 3.467 19.864-.357 24.635-9.315 3.137-5.89 3.031-12.643.305-18.212l-5.354 2.71a13.98 13.98 0 0 1-.246 12.681c-3.363 6.314-10.947 9.173-18.085 7.811a1.99 1.99 0 0 0-2.273 1.336"/><linearGradient id="c" x1="12.838" x2="34.961" y1="7.678" y2="40.027" gradientUnits="userSpaceOnUse"><stop offset="0" stop-color="#fed100"/><stop offset="1" stop-color="#e36001"/></linearGradient><path fill="url(#c)" d="M10 24c0 2.004.436 4.006 1.291 5.861l2.48-1.26c.699-.355 1.478.312 1.235 1.057l-2.439 7.482a1.25 1.25 0 0 1-1.575.8L3.51 35.501c-.745-.243-.824-1.265-.126-1.62l2.563-1.303c-3.528-7.427-2.235-16.574 3.911-22.72A19.94 19.94 0 0 1 24 4s-14 6-14 20m34.49-11.501-7.482-2.439a1.25 1.25 0 0 0-1.575.8l-2.439 7.482c-.243.745.536 1.412 1.235 1.057l2.48-1.26A14 14 0 0 1 38 24c0 14-14 20-14 20a19.94 19.94 0 0 0 14.142-5.857c6.146-6.146 7.439-15.293 3.911-22.72l2.563-1.303c.699-.355.619-1.378-.126-1.621"/></svg>