<svg xmlns="http://www.w3.org/2000/svg" width="96" height="96" viewBox="0 0 48 48"><path fill="#e3a600" d="M13 9V6a1 1 0 0 1 2 0v3zm4 0V6a1 1 0 0 1 2 0v3zm4 0V6a1 1 0 0 1 2 0v3zm4 0V6a1 1 0 0 1 2 0v3zm4 0V6a1 1 0 0 1 2 0v3zm4 0V6a1 1 0 0 1 2 0v3z"/><linearGradient id="a" x1="24.056" x2="23.957" y1="8.271" y2="36.062" gradientUnits="userSpaceOnUse"><stop offset="0" stop-color="#899198"/><stop offset="1" stop-color="#787e85"/></linearGradient><path fill="url(#a)" d="M37 39H11a2 2 0 0 1-2-2V11a2 2 0 0 1 2-2h26a2 2 0 0 1 2 2v26a2 2 0 0 1-2 2"/><path d="M32.36 36H15.637A3.637 3.637 0 0 1 12 32.363V15.64A3.64 3.64 0 0 1 15.64 12h16.72A3.64 3.64 0 0 1 36 15.64v16.72A3.64 3.64 0 0 1 32.36 36" opacity=".05"/><path d="M32.162 35H15.838A2.84 2.84 0 0 1 13 32.162V15.838A2.84 2.84 0 0 1 15.838 13h16.324A2.84 2.84 0 0 1 35 15.838v16.324A2.84 2.84 0 0 1 32.162 35" opacity=".07"/><linearGradient id="b" x1="23.902" x2="24.166" y1="14.123" y2="40.827" gradientUnits="userSpaceOnUse"><stop offset="0" stop-color="#ccc"/><stop offset=".396" stop-color="#bbb"/><stop offset="1" stop-color="#999"/></linearGradient><path fill="url(#b)" d="M32 34H16a2 2 0 0 1-2-2V16a2 2 0 0 1 2-2h16a2 2 0 0 1 2 2v16a2 2 0 0 1-2 2"/><path fill="#e3a600" d="M13 39v3a1 1 0 0 0 2 0v-3zm4 0v3a1 1 0 0 0 2 0v-3zm4 0v3a1 1 0 0 0 2 0v-3zm4 0v3a1 1 0 0 0 2 0v-3zm4 0v3a1 1 0 0 0 2 0v-3zm4 0v3a1 1 0 0 0 2 0v-3zm6-4h3a1 1 0 0 0 0-2h-3zm0-4h3a1 1 0 0 0 0-2h-3zm0-4h3a1 1 0 0 0 0-2h-3zm0-4h3a1 1 0 0 0 0-2h-3zm0-4h3a1 1 0 0 0 0-2h-3zm0-4h3a1 1 0 0 0 0-2h-3zM9 35H6a1 1 0 0 1 0-2h3zm0-4H6a1 1 0 0 1 0-2h3zm0-4H6a1 1 0 0 1 0-2h3zm0-4H6a1 1 0 0 1 0-2h3zm0-4H6a1 1 0 0 1 0-2h3zm0-4H6a1 1 0 0 1 0-2h3z"/><linearGradient id="c" x1="36" x2="36" y1="10.989" y2="12.571" gradientUnits="userSpaceOnUse"><stop offset="0" stop-color="#4c4c4c"/><stop offset="1" stop-color="#343434"/></linearGradient><circle cx="36" cy="12" r="1" fill="url(#c)"/><linearGradient id="d" x1="12" x2="12" y1="34.989" y2="36.571" gradientUnits="userSpaceOnUse"><stop offset="0" stop-color="#4c4c4c"/><stop offset="1" stop-color="#343434"/></linearGradient><circle cx="12" cy="36" r="1" fill="url(#d)"/><linearGradient id="e" x1="36" x2="36" y1="34.989" y2="36.571" gradientUnits="userSpaceOnUse"><stop offset="0" stop-color="#4c4c4c"/><stop offset="1" stop-color="#343434"/></linearGradient><circle cx="36" cy="36" r="1" fill="url(#e)"/><linearGradient id="f" x1="12" x2="12" y1="10.989" y2="12.571" gradientUnits="userSpaceOnUse"><stop offset="0" stop-color="#4c4c4c"/><stop offset="1" stop-color="#343434"/></linearGradient><circle cx="12" cy="12" r="1" fill="url(#f)"/></svg>