<?xml version="1.0" encoding="utf-8"?>
<!-- Generator: Adobe Illustrator 28.0.0, SVG Export Plug-In . SVG Version: 6.00 Build 0)  -->
<svg version="1.1" id="Ebene_1" xmlns="http://www.w3.org/2000/svg" xmlns:xlink="http://www.w3.org/1999/xlink" x="0px" y="0px"
	 viewBox="0 0 48 48" style="enable-background:new 0 0 48 48;" xml:space="preserve">
<style type="text/css">
	.st0{fill:#FFFFFF;}
</style>
<g>
	<path class="st0" d="M24,3.9c-11.3,0-20.5,9.2-20.5,20.6c0,8.6,5.4,16.3,13.3,19.3l1.4,0.6l5.2-14.2l-1.3-0.6
		c-2.1-0.8-3.5-2.8-3.5-5.1c0-3,2.5-5.5,5.5-5.5s5.5,2.5,5.5,5.5c0,2.3-1.4,4.3-3.5,5.1l-1.3,0.6l5.1,14.2l1.4-0.6
		c7.9-3,13.2-10.7,13.2-19.3C44.5,13.1,35.3,3.9,24,3.9z M32.5,24.4c0-4.7-3.8-8.5-8.5-8.5c-4.7,0-8.5,3.8-8.5,8.5
		c0,3.1,1.6,5.8,4.1,7.2l-3.2,8.7c-6-2.8-9.9-9.1-9.9-15.8c0-9.7,7.9-17.6,17.5-17.6s17.5,7.9,17.5,17.6c0,6.8-3.9,13-9.9,15.8
		l-3.2-8.7C30.9,30.1,32.5,27.4,32.5,24.4z"/>
</g>
</svg>
