<svg xmlns="http://www.w3.org/2000/svg" xml:space="preserve" viewBox="0 0 48 48"><path d="M24 3.9c-11.3 0-20.5 9.2-20.5 20.6 0 8.6 5.4 16.3 13.3 19.3l1.4.6 5.2-14.2-1.3-.6c-2.1-.8-3.5-2.8-3.5-5.1 0-3 2.5-5.5 5.5-5.5s5.5 2.5 5.5 5.5c0 2.3-1.4 4.3-3.5 5.1l-1.3.6 5.1 14.2 1.4-.6c7.9-3 13.2-10.7 13.2-19.3 0-11.4-9.2-20.6-20.5-20.6m8.5 20.5c0-4.7-3.8-8.5-8.5-8.5s-8.5 3.8-8.5 8.5c0 3.1 1.6 5.8 4.1 7.2l-3.2 8.7c-6-2.8-9.9-9.1-9.9-15.8 0-9.7 7.9-17.6 17.5-17.6s17.5 7.9 17.5 17.6c0 6.8-3.9 13-9.9 15.8l-3.2-8.7c2.5-1.5 4.1-4.2 4.1-7.2" style="fill:#fff"/></svg>